# xmcd
#
# Track frame offsets:
#	150
#	14095
#	32072
#	47802
#	60815
#	72697
#	85682
#	97125
#	118542
#	136657
#	151622
#	157312
#	168650
#	182595
#	200747
#	213970
#	223467
#	233012
#	245270
#	259745
#	273750
#	288715
#	300260
#	309910
#	320947
#
# Disc length: 4463 seconds
#
# Revision: 0
# Processed by: cddbd v1.5.1PL2 Copyright (c) Steve Scherf et al.
# Submitted via: dBpowerAMP V4.0
#
DISCID=6d116d19
DTITLE=Dikkricher Duo - e lëstigen Owend mat eisen allerschingste Lidder
DYEAR=1900
DGENRE=Folk
TTITLE0=unter dem Doppeladler
TTITLE1=Valses à Gogo
TTITLE2=Spézialitéiten vun heiheem
TTITLE3=Caminito
TTITLE4=Micky-Musette
TTITLE5=American-Medley
TTITLE6=Evergreens aus Amerika
TTITLE7=e Pättchen vun der Musel
TTITLE8=Tango Ballade
TTITLE9=ronderem den Ieselsbuer
TTITLE10=Samba-Samba
TTITLE11=Vaya con Dios
TTITLE12=Mexico
TTITLE13=Marche americaine
TTITLE14=la plus belle valse d'amour
TTITLE15=el choclo tango
TTITLE16=ungarischer Tanz nr 5
TTITLE17=Evergreens aus Frankreich
TTITLE18=Morena de mi copla
TTITLE19=Wien bleibt Wien
TTITLE20=Caprice espagnol
TTITLE21=ungarischer Tanz nr 6
TTITLE22=olé Guapa
TTITLE23=reine des AS
TTITLE24=Radetzky Marche
EXTD=
EXTT0=
EXTT1=
EXTT2=
EXTT3=
EXTT4=
EXTT5=
EXTT6=
EXTT7=
EXTT8=
EXTT9=
EXTT10=
EXTT11=
EXTT12=
EXTT13=
EXTT14=
EXTT15=
EXTT16=
EXTT17=
EXTT18=
EXTT19=
EXTT20=
EXTT21=
EXTT22=
EXTT23=
EXTT24=
PLAYORDER=
